<svg width="475" height="469" viewBox="0 0 475 469" fill="none" xmlns="http://www.w3.org/2000/svg">
<path d="M413.527 67.0172C361.619 116.063 310.671 76.6529 287.313 49.6346C263.955 22.6163 277.031 18.2213 328.939 -30.8248C380.847 -79.871 441.863 -97.7281 465.221 -70.7098C488.579 -43.6914 465.435 17.971 413.527 67.0172Z" fill="black"/>
<path d="M413.527 67.0172C361.619 116.063 310.671 76.6529 287.313 49.6346C263.955 22.6163 277.031 18.2213 328.939 -30.8248C380.847 -79.871 441.863 -97.7281 465.221 -70.7098C488.579 -43.6914 465.435 17.971 413.527 67.0172Z" fill="black"/>
<path d="M413.527 67.0172C361.619 116.063 310.671 76.6529 287.313 49.6346C263.955 22.6163 277.031 18.2213 328.939 -30.8248C380.847 -79.871 441.863 -97.7281 465.221 -70.7098C488.579 -43.6914 465.435 17.971 413.527 67.0172Z" fill="black"/>
<path d="M326.533 30.9476C328.605 102.17 345.93 45.1207 310.233 47.8787C274.537 50.6366 275.33 36.888 200.315 21.6349C198.242 -49.5871 222.449 -90.2595 258.146 -93.0174C293.842 -95.7754 324.46 -40.2743 326.533 30.9476Z" fill="black"/>
<path d="M326.533 30.9476C328.605 102.17 345.93 45.1207 310.233 47.8787C274.537 50.6366 275.33 36.888 200.315 21.6349C198.242 -49.5871 222.449 -90.2595 258.146 -93.0174C293.842 -95.7754 324.46 -40.2743 326.533 30.9476Z" fill="black"/>
<path d="M326.533 30.9476C328.605 102.17 345.93 45.1207 310.233 47.8787C274.537 50.6366 275.33 36.888 200.315 21.6349C198.242 -49.5871 222.449 -90.2595 258.146 -93.0174C293.842 -95.7754 324.46 -40.2743 326.533 30.9476Z" fill="black"/>
<path d="M128.666 -13.7559L402.104 107.34C437.958 123.219 454.151 165.156 438.273 201.009L325.23 456.262L51.7922 335.166C15.9387 319.287 -0.254527 277.35 15.6238 241.497L128.666 -13.7559Z" stroke="black" stroke-width="18"/>
<path d="M213.025 106.811L133.885 285.511L110.587 275.194L189.727 96.4936L213.025 106.811ZM392.923 186.482L383.286 208.243L321.585 180.918L252.083 337.857L228.785 327.539L298.288 170.601L236.588 143.276L246.225 121.515L392.923 186.482Z" fill="black"/>
</svg>
